<?xml version="1.0" encoding="UTF-8" standalone="no"?>
<!DOCTYPE svg PUBLIC "-//W3C//DTD SVG 1.1//EN" "http://www.w3.org/Graphics/SVG/1.1/DTD/svg11.dtd">
<svg width="100%" height="100%" viewBox="0 0 512 512" version="1.1" xmlns="http://www.w3.org/2000/svg" xmlns:xlink="http://www.w3.org/1999/xlink" xml:space="preserve" xmlns:serif="http://www.serif.com/" style="fill-rule:evenodd;clip-rule:evenodd;stroke-linejoin:round;stroke-miterlimit:2;">
    <path d="M255.022,511.998L255.251,511.999L255.172,511.999L255.022,511.998ZM256.828,511.999L256.749,511.999L256.978,511.998L256.828,511.999ZM254.24,511.994L254.487,511.995L254.345,511.995L254.24,511.994ZM257.655,511.995L257.513,511.995L257.76,511.994L257.655,511.995ZM253.486,511.988L253.651,511.989L253.519,511.988L253.486,511.988ZM258.481,511.988L258.349,511.989L258.514,511.988L258.481,511.988ZM259.307,511.979L259.249,511.98L259.472,511.977L259.307,511.979ZM252.528,511.977L252.751,511.98L252.693,511.979L252.528,511.977ZM260.132,511.967L259.997,511.969L260.272,511.965L260.132,511.967ZM251.728,511.965L252.003,511.969L251.868,511.967L251.728,511.965ZM260.956,511.953L260.774,511.956L261.028,511.951L260.956,511.953ZM250.972,511.951L251.226,511.956L251.044,511.953L250.972,511.951ZM250.035,511.932L250.26,511.937L250.22,511.936L250.035,511.932ZM261.78,511.936L261.74,511.937L261.965,511.932L261.78,511.936ZM249.213,511.911L249.522,511.919L249.397,511.916L249.213,511.911ZM262.603,511.916L262.478,511.919L262.787,511.911L262.603,511.916ZM263.426,511.894L263.225,511.9L263.541,511.891L263.426,511.894ZM248.459,511.891L248.775,511.9L248.574,511.894L248.459,511.891ZM247.739,511.869L247.964,511.876L247.752,511.869L247.558,511.863L247.739,511.869ZM264.248,511.869L264.036,511.876L264.261,511.869L264.442,511.863L264.248,511.869ZM265.069,511.842L264.957,511.846L265.302,511.834L265.069,511.842ZM246.698,511.834L247.043,511.846L246.931,511.842L246.698,511.834ZM245.949,511.806L246.311,511.819L246.11,511.812L245.949,511.806ZM265.89,511.812L265.689,511.819L266.051,511.806L265.89,511.812ZM245.214,511.776L245.568,511.791L245.291,511.78L245.214,511.776ZM266.709,511.78L266.432,511.791L266.786,511.776L266.709,511.78ZM244.184,511.731L244.564,511.748L244.471,511.745L244.184,511.731ZM267.529,511.745L267.436,511.748L267.816,511.731L267.529,511.745ZM243.445,511.697L243.839,511.715L243.653,511.707L243.445,511.697ZM268.347,511.707L268.161,511.715L268.555,511.697L268.347,511.707ZM242.717,511.66L243.114,511.68L242.835,511.667L242.717,511.66ZM269.165,511.667L268.886,511.68L269.283,511.66L269.165,511.667ZM269.983,511.624L269.621,511.643L269.942,511.626L270.32,511.605L269.983,511.624ZM242.058,511.626L242.379,511.643L242.017,511.624L241.68,511.605L242.058,511.626ZM270.799,511.578L270.639,511.587L271.045,511.564L270.799,511.578ZM240.955,511.564L241.361,511.587L241.201,511.578L240.955,511.564ZM240.233,511.521L240.638,511.545L240.385,511.531L240.233,511.521ZM271.615,511.531L271.362,511.545L271.767,511.521L271.615,511.531ZM239.544,511.478L239.909,511.501L239.569,511.48L239.227,511.458L239.544,511.478ZM272.431,511.48L272.091,511.501L272.456,511.478L272.773,511.458L272.431,511.48ZM273.245,511.427L273.123,511.435L273.51,511.409L273.245,511.427ZM238.49,511.409L238.877,511.435L238.755,511.427L238.49,511.409ZM237.769,511.359L238.149,511.386L237.941,511.372L237.769,511.359ZM274.059,511.372L273.851,511.386L274.231,511.359L274.059,511.372ZM237.05,511.308L237.399,511.333L237.128,511.314L237.05,511.308ZM274.872,511.314L274.601,511.333L274.95,511.308L274.872,511.314ZM236.083,511.235L236.389,511.258L236.315,511.253L236.083,511.235ZM275.685,511.253L275.611,511.258L275.917,511.235L275.685,511.253ZM276.496,511.19L276.35,511.201L276.661,511.176L276.496,511.19ZM235.339,511.176L235.65,511.201L235.504,511.19L235.339,511.176ZM234.614,511.117L234.878,511.139L234.692,511.124L234.614,511.117ZM277.308,511.124L277.122,511.139L277.386,511.117L277.308,511.124ZM233.816,511.05L233.895,511.057L233.882,511.056L233.816,511.05ZM278.118,511.056L278.105,511.057L278.184,511.05L278.118,511.056ZM278.928,510.985L278.856,510.991L279.037,510.975L278.928,510.985ZM232.963,510.975L233.144,510.991L233.072,510.985L232.963,510.975ZM232.213,510.907L232.348,510.92L232.264,510.912L232.213,510.907ZM279.736,510.912L279.652,510.92L279.787,510.907L279.736,510.912ZM216,508.887C93.681,489.661 -0,383.684 -0,256C-0,114.71 114.71,-0 256,-0C397.29,-0 512,114.71 512,256C512,383.684 418.319,489.661 296,508.887L296,330L355.65,330L367,256L296,256L296,207.979C296,187.734 305.918,168 337.719,168L370,168L370,105C370,105 340.704,100 312.695,100C254.219,100 216,135.44 216,199.6L216,256L151,256L151,330L216,330L216,508.887Z" style="fill:rgb(166,198,222);"/>
</svg>
