<?xml version="1.0" encoding="UTF-8" standalone="no"?>
<!DOCTYPE svg PUBLIC "-//W3C//DTD SVG 1.1//EN" "http://www.w3.org/Graphics/SVG/1.1/DTD/svg11.dtd">
<svg width="100%" height="100%" viewBox="0 0 512 512" version="1.1" xmlns="http://www.w3.org/2000/svg" xmlns:xlink="http://www.w3.org/1999/xlink" xml:space="preserve" xmlns:serif="http://www.serif.com/" style="fill-rule:evenodd;clip-rule:evenodd;stroke-linejoin:round;stroke-miterlimit:2;">
    <path d="M256,0C397.29,0 512,114.71 512,256C512,397.29 397.29,512 256,512C114.71,512 0,397.29 0,256C0,114.71 114.71,0 256,0ZM256,96C212.547,96 207.098,96.184 190.032,96.963C173.002,97.74 161.371,100.445 151.193,104.4C140.672,108.489 131.749,113.96 122.854,122.855C113.959,131.75 108.488,140.673 104.399,151.194C100.444,161.371 97.74,173.002 96.962,190.032C96.184,207.098 96,212.547 96,256C96,299.453 96.184,304.902 96.962,321.968C97.74,338.998 100.444,350.629 104.399,360.806C108.488,371.327 113.959,380.25 122.854,389.146C131.749,398.041 140.672,403.512 151.193,407.601C161.371,411.555 173.002,414.26 190.032,415.037C207.098,415.816 212.547,416 256,416C299.453,416 304.902,415.816 321.968,415.037C338.998,414.26 350.629,411.555 360.806,407.601C371.327,403.512 380.25,398.041 389.146,389.146C398.041,380.25 403.512,371.327 407.601,360.806C411.555,350.629 414.26,338.998 415.037,321.968C415.816,304.902 416,299.453 416,256C416,212.547 415.816,207.098 415.037,190.032C414.26,173.002 411.555,161.371 407.601,151.194C403.512,140.673 398.041,131.75 389.146,122.855C380.25,113.96 371.327,108.489 360.806,104.4C350.629,100.445 338.998,97.74 321.968,96.963C304.902,96.184 299.453,96 256,96ZM256,124.829C298.722,124.829 303.782,124.992 320.654,125.762C336.254,126.474 344.725,129.08 350.363,131.271C357.832,134.173 363.162,137.641 368.76,143.24C374.36,148.838 377.827,154.169 380.729,161.637C382.92,167.275 385.527,175.746 386.238,191.346C387.008,208.218 387.171,213.278 387.171,256C387.171,298.722 387.008,303.782 386.238,320.654C385.527,336.254 382.92,344.725 380.729,350.363C377.827,357.832 374.36,363.162 368.76,368.76C363.162,374.36 357.832,377.827 350.363,380.729C344.725,382.92 336.254,385.527 320.654,386.238C303.785,387.008 298.725,387.171 256,387.171C213.275,387.171 208.216,387.008 191.346,386.238C175.746,385.527 167.275,382.92 161.637,380.729C154.168,377.827 148.838,374.36 143.239,368.76C137.64,363.162 134.173,357.832 131.271,350.363C129.08,344.725 126.473,336.254 125.761,320.654C124.991,303.782 124.829,298.722 124.829,256C124.829,213.278 124.991,208.218 125.761,191.346C126.473,175.746 129.08,167.275 131.271,161.637C134.173,154.169 137.64,148.838 143.239,143.24C148.838,137.641 154.168,134.173 161.637,131.271C167.275,129.08 175.746,126.474 191.346,125.762C208.218,124.992 213.278,124.829 256,124.829ZM256,173.838C210.623,173.838 173.838,210.623 173.838,256C173.838,301.377 210.623,338.162 256,338.162C301.377,338.162 338.162,301.377 338.162,256C338.162,210.623 301.377,173.838 256,173.838ZM256,309.333C226.545,309.333 202.667,285.455 202.667,256C202.667,226.545 226.545,202.667 256,202.667C285.455,202.667 309.333,226.545 309.333,256C309.333,285.455 285.455,309.333 256,309.333ZM360.609,170.592C360.609,181.196 352.012,189.791 341.408,189.791C330.805,189.791 322.209,181.196 322.209,170.592C322.209,159.988 330.805,151.392 341.408,151.392C352.012,151.392 360.609,159.988 360.609,170.592Z" style="fill:rgb(166,198,222);"/>
</svg>
